<mxfile host="app.diagrams.net" agent="Mozilla/5.0 (Windows NT 10.0; Win64; x64) AppleWebKit/537.36 (KHTML, like Gecko) Chrome/137.0.0.0 Safari/537.36" version="27.1.5">
  <diagram name="Page-1" id="orAvbQSQmHUDCHo70LKo">
    <mxGraphModel dx="830" dy="443" grid="1" gridSize="10" guides="1" tooltips="1" connect="1" arrows="1" fold="1" page="1" pageScale="1" pageWidth="850" pageHeight="1100" math="0" shadow="0">
      <root>
        <mxCell id="0" />
        <mxCell id="1" parent="0" />
        <mxCell id="3qFaxTtZR_sUx9hn0ahr-9" value="" style="shape=umlLifeline;perimeter=lifelinePerimeter;whiteSpace=wrap;html=1;container=1;dropTarget=0;collapsible=0;recursiveResize=0;outlineConnect=0;portConstraint=eastwest;newEdgeStyle={&quot;curved&quot;:0,&quot;rounded&quot;:0};participant=umlActor;" vertex="1" parent="1">
          <mxGeometry x="130" y="120" width="20" height="570" as="geometry" />
        </mxCell>
        <mxCell id="3qFaxTtZR_sUx9hn0ahr-14" value="" style="html=1;points=[[0,0,0,0,5],[0,1,0,0,-5],[1,0,0,0,5],[1,1,0,0,-5]];perimeter=orthogonalPerimeter;outlineConnect=0;targetShapes=umlLifeline;portConstraint=eastwest;newEdgeStyle={&quot;curved&quot;:0,&quot;rounded&quot;:0};" vertex="1" parent="3qFaxTtZR_sUx9hn0ahr-9">
          <mxGeometry x="5" y="80" width="10" height="40" as="geometry" />
        </mxCell>
        <mxCell id="3qFaxTtZR_sUx9hn0ahr-65" value="" style="html=1;points=[[0,0,0,0,5],[0,1,0,0,-5],[1,0,0,0,5],[1,1,0,0,-5]];perimeter=orthogonalPerimeter;outlineConnect=0;targetShapes=umlLifeline;portConstraint=eastwest;newEdgeStyle={&quot;curved&quot;:0,&quot;rounded&quot;:0};" vertex="1" parent="3qFaxTtZR_sUx9hn0ahr-9">
          <mxGeometry x="5" y="490" width="10" height="40" as="geometry" />
        </mxCell>
        <mxCell id="3qFaxTtZR_sUx9hn0ahr-11" value="SaveLoadPanel" style="shape=umlLifeline;perimeter=lifelinePerimeter;whiteSpace=wrap;html=1;container=1;dropTarget=0;collapsible=0;recursiveResize=0;outlineConnect=0;portConstraint=eastwest;newEdgeStyle={&quot;curved&quot;:0,&quot;rounded&quot;:0};" vertex="1" parent="1">
          <mxGeometry x="240" y="120" width="140" height="570" as="geometry" />
        </mxCell>
        <mxCell id="3qFaxTtZR_sUx9hn0ahr-41" value="" style="html=1;points=[[0,0,0,0,5],[0,1,0,0,-5],[1,0,0,0,5],[1,1,0,0,-5]];perimeter=orthogonalPerimeter;outlineConnect=0;targetShapes=umlLifeline;portConstraint=eastwest;newEdgeStyle={&quot;curved&quot;:0,&quot;rounded&quot;:0};" vertex="1" parent="3qFaxTtZR_sUx9hn0ahr-11">
          <mxGeometry x="65" y="80" width="10" height="390" as="geometry" />
        </mxCell>
        <mxCell id="3qFaxTtZR_sUx9hn0ahr-66" value="" style="html=1;points=[[0,0,0,0,5],[0,1,0,0,-5],[1,0,0,0,5],[1,1,0,0,-5]];perimeter=orthogonalPerimeter;outlineConnect=0;targetShapes=umlLifeline;portConstraint=eastwest;newEdgeStyle={&quot;curved&quot;:0,&quot;rounded&quot;:0};" vertex="1" parent="3qFaxTtZR_sUx9hn0ahr-11">
          <mxGeometry x="65" y="490" width="10" height="70" as="geometry" />
        </mxCell>
        <mxCell id="3qFaxTtZR_sUx9hn0ahr-12" value="SaveManager" style="shape=umlLifeline;perimeter=lifelinePerimeter;whiteSpace=wrap;html=1;container=1;dropTarget=0;collapsible=0;recursiveResize=0;outlineConnect=0;portConstraint=eastwest;newEdgeStyle={&quot;curved&quot;:0,&quot;rounded&quot;:0};" vertex="1" parent="1">
          <mxGeometry x="600" y="120" width="140" height="570" as="geometry" />
        </mxCell>
        <mxCell id="3qFaxTtZR_sUx9hn0ahr-49" value="" style="html=1;points=[[0,0,0,0,5],[0,1,0,0,-5],[1,0,0,0,5],[1,1,0,0,-5]];perimeter=orthogonalPerimeter;outlineConnect=0;targetShapes=umlLifeline;portConstraint=eastwest;newEdgeStyle={&quot;curved&quot;:0,&quot;rounded&quot;:0};" vertex="1" parent="3qFaxTtZR_sUx9hn0ahr-12">
          <mxGeometry x="65" y="220" width="10" height="40" as="geometry" />
        </mxCell>
        <mxCell id="3qFaxTtZR_sUx9hn0ahr-55" value="" style="html=1;points=[[0,0,0,0,5],[0,1,0,0,-5],[1,0,0,0,5],[1,1,0,0,-5]];perimeter=orthogonalPerimeter;outlineConnect=0;targetShapes=umlLifeline;portConstraint=eastwest;newEdgeStyle={&quot;curved&quot;:0,&quot;rounded&quot;:0};" vertex="1" parent="3qFaxTtZR_sUx9hn0ahr-12">
          <mxGeometry x="65" y="280" width="10" height="150" as="geometry" />
        </mxCell>
        <mxCell id="3qFaxTtZR_sUx9hn0ahr-13" value="GameScreenController" style="shape=umlLifeline;perimeter=lifelinePerimeter;whiteSpace=wrap;html=1;container=1;dropTarget=0;collapsible=0;recursiveResize=0;outlineConnect=0;portConstraint=eastwest;newEdgeStyle={&quot;curved&quot;:0,&quot;rounded&quot;:0};" vertex="1" parent="1">
          <mxGeometry x="420" y="120" width="140" height="570" as="geometry" />
        </mxCell>
        <mxCell id="3qFaxTtZR_sUx9hn0ahr-45" value="" style="html=1;points=[[0,0,0,0,5],[0,1,0,0,-5],[1,0,0,0,5],[1,1,0,0,-5]];perimeter=orthogonalPerimeter;outlineConnect=0;targetShapes=umlLifeline;portConstraint=eastwest;newEdgeStyle={&quot;curved&quot;:0,&quot;rounded&quot;:0};" vertex="1" parent="3qFaxTtZR_sUx9hn0ahr-13">
          <mxGeometry x="65" y="140" width="10" height="70" as="geometry" />
        </mxCell>
        <mxCell id="3qFaxTtZR_sUx9hn0ahr-58" value="" style="html=1;points=[[0,0,0,0,5],[0,1,0,0,-5],[1,0,0,0,5],[1,1,0,0,-5]];perimeter=orthogonalPerimeter;outlineConnect=0;targetShapes=umlLifeline;portConstraint=eastwest;newEdgeStyle={&quot;curved&quot;:0,&quot;rounded&quot;:0};" vertex="1" parent="3qFaxTtZR_sUx9hn0ahr-13">
          <mxGeometry x="65" y="420" width="10" height="50" as="geometry" />
        </mxCell>
        <mxCell id="3qFaxTtZR_sUx9hn0ahr-15" value="File" style="shape=umlLifeline;perimeter=lifelinePerimeter;whiteSpace=wrap;html=1;container=1;dropTarget=0;collapsible=0;recursiveResize=0;outlineConnect=0;portConstraint=eastwest;newEdgeStyle={&quot;curved&quot;:0,&quot;rounded&quot;:0};" vertex="1" parent="1">
          <mxGeometry x="780" y="120" width="140" height="570" as="geometry" />
        </mxCell>
        <mxCell id="3qFaxTtZR_sUx9hn0ahr-51" value="" style="html=1;points=[[0,0,0,0,5],[0,1,0,0,-5],[1,0,0,0,5],[1,1,0,0,-5]];perimeter=orthogonalPerimeter;outlineConnect=0;targetShapes=umlLifeline;portConstraint=eastwest;newEdgeStyle={&quot;curved&quot;:0,&quot;rounded&quot;:0};" vertex="1" parent="3qFaxTtZR_sUx9hn0ahr-15">
          <mxGeometry x="65" y="220" width="10" height="40" as="geometry" />
        </mxCell>
        <mxCell id="3qFaxTtZR_sUx9hn0ahr-62" value="" style="html=1;points=[[0,0,0,0,5],[0,1,0,0,-5],[1,0,0,0,5],[1,1,0,0,-5]];perimeter=orthogonalPerimeter;outlineConnect=0;targetShapes=umlLifeline;portConstraint=eastwest;newEdgeStyle={&quot;curved&quot;:0,&quot;rounded&quot;:0};" vertex="1" parent="3qFaxTtZR_sUx9hn0ahr-15">
          <mxGeometry x="65" y="310" width="10" height="70" as="geometry" />
        </mxCell>
        <mxCell id="3qFaxTtZR_sUx9hn0ahr-42" value="slotPressed(slotIndex)" style="html=1;verticalAlign=bottom;endArrow=block;curved=0;rounded=0;" edge="1" parent="1" source="3qFaxTtZR_sUx9hn0ahr-14" target="3qFaxTtZR_sUx9hn0ahr-41">
          <mxGeometry width="80" relative="1" as="geometry">
            <mxPoint x="170" y="220" as="sourcePoint" />
            <mxPoint x="250" y="220" as="targetPoint" />
          </mxGeometry>
        </mxCell>
        <mxCell id="3qFaxTtZR_sUx9hn0ahr-43" value="if save mode" style="text;html=1;align=center;verticalAlign=middle;resizable=0;points=[];autosize=1;strokeColor=none;fillColor=none;" vertex="1" parent="1">
          <mxGeometry x="145" y="258" width="90" height="30" as="geometry" />
        </mxCell>
        <mxCell id="3qFaxTtZR_sUx9hn0ahr-44" value="" style="line;strokeWidth=1;fillColor=none;align=left;verticalAlign=middle;spacingTop=-1;spacingLeft=3;spacingRight=3;rotatable=0;labelPosition=right;points=[];portConstraint=eastwest;strokeColor=inherit;dashed=1;dashPattern=8 8;" vertex="1" parent="1">
          <mxGeometry x="120" y="250" width="800" height="8" as="geometry" />
        </mxCell>
        <mxCell id="3qFaxTtZR_sUx9hn0ahr-46" value="getPlayerStats()" style="html=1;verticalAlign=bottom;endArrow=block;curved=0;rounded=0;" edge="1" parent="1">
          <mxGeometry width="80" relative="1" as="geometry">
            <mxPoint x="315" y="280" as="sourcePoint" />
            <mxPoint x="485" y="280" as="targetPoint" />
            <Array as="points">
              <mxPoint x="440" y="280" />
            </Array>
          </mxGeometry>
        </mxCell>
        <mxCell id="3qFaxTtZR_sUx9hn0ahr-47" value="return playerStats" style="html=1;verticalAlign=bottom;endArrow=open;dashed=1;endSize=8;curved=0;rounded=0;" edge="1" parent="1">
          <mxGeometry relative="1" as="geometry">
            <mxPoint x="485" y="315" as="sourcePoint" />
            <mxPoint x="315" y="315" as="targetPoint" />
          </mxGeometry>
        </mxCell>
        <mxCell id="3qFaxTtZR_sUx9hn0ahr-50" value="saveGame(playerStats, filename)" style="html=1;verticalAlign=bottom;endArrow=block;curved=0;rounded=0;" edge="1" parent="1">
          <mxGeometry width="80" relative="1" as="geometry">
            <mxPoint x="315" y="360" as="sourcePoint" />
            <mxPoint x="665" y="360" as="targetPoint" />
          </mxGeometry>
        </mxCell>
        <mxCell id="3qFaxTtZR_sUx9hn0ahr-52" value="Write to file" style="html=1;verticalAlign=bottom;endArrow=block;curved=0;rounded=0;" edge="1" parent="1" target="3qFaxTtZR_sUx9hn0ahr-51">
          <mxGeometry width="80" relative="1" as="geometry">
            <mxPoint x="675" y="360" as="sourcePoint" />
            <mxPoint x="790" y="360" as="targetPoint" />
          </mxGeometry>
        </mxCell>
        <mxCell id="3qFaxTtZR_sUx9hn0ahr-53" value="" style="line;strokeWidth=1;fillColor=none;align=left;verticalAlign=middle;spacingTop=-1;spacingLeft=3;spacingRight=3;rotatable=0;labelPosition=right;points=[];portConstraint=eastwest;strokeColor=inherit;dashed=1;dashPattern=8 8;" vertex="1" parent="1">
          <mxGeometry x="120" y="380" width="800" height="8" as="geometry" />
        </mxCell>
        <mxCell id="3qFaxTtZR_sUx9hn0ahr-54" value="if load mode" style="text;html=1;align=center;verticalAlign=middle;resizable=0;points=[];autosize=1;strokeColor=none;fillColor=none;" vertex="1" parent="1">
          <mxGeometry x="145" y="388" width="90" height="30" as="geometry" />
        </mxCell>
        <mxCell id="3qFaxTtZR_sUx9hn0ahr-56" value="loadGame(filename)" style="html=1;verticalAlign=bottom;endArrow=block;curved=0;rounded=0;" edge="1" parent="1">
          <mxGeometry width="80" relative="1" as="geometry">
            <mxPoint x="315" y="418" as="sourcePoint" />
            <mxPoint x="665" y="418" as="targetPoint" />
          </mxGeometry>
        </mxCell>
        <mxCell id="3qFaxTtZR_sUx9hn0ahr-57" value="return playerStats" style="html=1;verticalAlign=bottom;endArrow=open;dashed=1;endSize=8;curved=0;rounded=0;" edge="1" parent="1">
          <mxGeometry relative="1" as="geometry">
            <mxPoint x="665" y="520" as="sourcePoint" />
            <mxPoint x="315" y="520" as="targetPoint" />
          </mxGeometry>
        </mxCell>
        <mxCell id="3qFaxTtZR_sUx9hn0ahr-59" value="new GameScreen-&lt;div&gt;Controller(playerStats)&lt;/div&gt;" style="html=1;verticalAlign=bottom;endArrow=block;curved=0;rounded=0;" edge="1" parent="1">
          <mxGeometry width="80" relative="1" as="geometry">
            <mxPoint x="315" y="570" as="sourcePoint" />
            <mxPoint x="485" y="570" as="targetPoint" />
            <Array as="points">
              <mxPoint x="440" y="570" />
            </Array>
          </mxGeometry>
        </mxCell>
        <mxCell id="3qFaxTtZR_sUx9hn0ahr-61" value="" style="line;strokeWidth=1;fillColor=none;align=left;verticalAlign=middle;spacingTop=-1;spacingLeft=3;spacingRight=3;rotatable=0;labelPosition=right;points=[];portConstraint=eastwest;strokeColor=inherit;dashed=1;dashPattern=8 8;" vertex="1" parent="1">
          <mxGeometry x="120" y="592" width="800" height="8" as="geometry" />
        </mxCell>
        <mxCell id="3qFaxTtZR_sUx9hn0ahr-63" value="Read from file" style="html=1;verticalAlign=bottom;endArrow=block;curved=0;rounded=0;" edge="1" parent="1" target="3qFaxTtZR_sUx9hn0ahr-62">
          <mxGeometry width="80" relative="1" as="geometry">
            <mxPoint x="675" y="450" as="sourcePoint" />
            <mxPoint x="790" y="450" as="targetPoint" />
          </mxGeometry>
        </mxCell>
        <mxCell id="3qFaxTtZR_sUx9hn0ahr-64" value="Return data" style="html=1;verticalAlign=bottom;endArrow=open;dashed=1;endSize=8;curved=0;rounded=0;" edge="1" parent="1" source="3qFaxTtZR_sUx9hn0ahr-62">
          <mxGeometry relative="1" as="geometry">
            <mxPoint x="790" y="490" as="sourcePoint" />
            <mxPoint x="675" y="490" as="targetPoint" />
          </mxGeometry>
        </mxCell>
        <mxCell id="3qFaxTtZR_sUx9hn0ahr-67" value="backButtonPressed" style="html=1;verticalAlign=bottom;endArrow=block;curved=0;rounded=0;" edge="1" parent="1">
          <mxGeometry width="80" relative="1" as="geometry">
            <mxPoint x="145" y="630" as="sourcePoint" />
            <mxPoint x="305" y="630" as="targetPoint" />
          </mxGeometry>
        </mxCell>
        <mxCell id="3qFaxTtZR_sUx9hn0ahr-69" value="setVisible(false)" style="html=1;align=left;spacingLeft=2;endArrow=block;rounded=0;edgeStyle=orthogonalEdgeStyle;curved=0;rounded=0;" edge="1" target="3qFaxTtZR_sUx9hn0ahr-66" parent="1">
          <mxGeometry relative="1" as="geometry">
            <mxPoint x="315" y="630" as="sourcePoint" />
            <Array as="points">
              <mxPoint x="315" y="650" />
              <mxPoint x="380" y="650" />
              <mxPoint x="380" y="665" />
            </Array>
            <mxPoint x="330" y="665" as="targetPoint" />
          </mxGeometry>
        </mxCell>
      </root>
    </mxGraphModel>
  </diagram>
</mxfile>
